<svg width="25" height="25" viewBox="0 0 25 25" fill="none" xmlns="http://www.w3.org/2000/svg">
<path d="M8.24992 14.0309C9.71867 14.0309 10.8958 15.2194 10.8958 16.6986V20.2496C10.8958 21.7184 9.71867 22.9163 8.24992 22.9163H4.72909C3.27075 22.9163 2.08325 21.7184 2.08325 20.2496V16.6986C2.08325 15.2194 3.27075 14.0309 4.72909 14.0309H8.24992ZM20.2709 14.0309C21.7292 14.0309 22.9167 15.2194 22.9167 16.6986V20.2496C22.9167 21.7184 21.7292 22.9163 20.2709 22.9163H16.75C15.2813 22.9163 14.1042 21.7184 14.1042 20.2496V16.6986C14.1042 15.2194 15.2813 14.0309 16.75 14.0309H20.2709ZM8.24992 2.08325C9.71867 2.08325 10.8958 3.28117 10.8958 4.75096V8.302C10.8958 9.78117 9.71867 10.9687 8.24992 10.9687H4.72909C3.27075 10.9687 2.08325 9.78117 2.08325 8.302V4.75096C2.08325 3.28117 3.27075 2.08325 4.72909 2.08325H8.24992ZM20.2709 2.08325C21.7292 2.08325 22.9167 3.28117 22.9167 4.75096V8.302C22.9167 9.78117 21.7292 10.9687 20.2709 10.9687H16.75C15.2813 10.9687 14.1042 9.78117 14.1042 8.302V4.75096C14.1042 3.28117 15.2813 2.08325 16.75 2.08325H20.2709Z" fill="white"/>
</svg>
